# xmcd
#
# Track frame offsets:
#	150
#	12940
#	27268
#	42280
#	53104
#	65570
#	76533
#	88131
#	110732
#	120378
#	138543
#	155909
#	168388
#	180342
#
# Disc length: 2575 seconds
# Revision: 0
# Processed by: cddbd v1.5.2PL0 Copyright (c) Steve Scherf et al.
# Submitted via: dBpowerAMP V12.0
#
DISCID=b30a0d0e
DTITLE=The Roustabouts - Patchwork
DYEAR=2015
DGENRE=Country
TTITLE0=How Many Times
TTITLE1=Good Hearted Woman
TTITLE2=High on a Hilltop
TTITLE3=Hello Trouble
TTITLE4=Uptown Blues
TTITLE5=Girl of my Dreams
TTITLE6=Way Down Deep
TTITLE7=Lonesome Old Feeling
TTITLE8=Rosedale Highway Breakdown
TTITLE9=Tonight The Bottle Let me Down
TTITLE10=I Looked Down That Road
TTITLE11=Where Does The Good Times go
TTITLE12=Gone Home
TTITLE13=Gone, Gone, Gone
EXTD=
EXTT0=
EXTT1=
EXTT2=
EXTT3=
EXTT4=
EXTT5=
EXTT6=
EXTT7=
EXTT8=
EXTT9=
EXTT10=
EXTT11=
EXTT12=
EXTT13=
PLAYORDER=
